<?xml version="1.0" encoding="UTF-8"?> <svg xmlns="http://www.w3.org/2000/svg" id="Layer_2" data-name="Layer 2" viewBox="0 0 422.54 73.49"><defs><style> .cls-1 { fill: none; } .cls-2 { fill: #ffc629; } </style></defs><g id="Layer_1-2" data-name="Layer 1"><g id="Horizontal_-_Superior_Sandwiches_-_Yellow" data-name="Horizontal - Superior Sandwiches - Yellow"><g><g><g><polygon class="cls-2" points="252.72 39.64 244.61 24.79 236.39 39.64 221.46 3.7 231.56 3.69 239.32 22.27 245.24 7.77 250.67 22.27 258.36 3.7 267.97 3.7 252.72 39.64"></polygon><rect class="cls-2" x="276.03" y="3.67" width="10.21" height="37.73"></rect><polygon class="cls-2" points="371.39 41.39 361.52 41.39 361.52 26.26 349.13 26.26 349.13 41.39 339.26 41.39 339.26 3.67 349.13 3.67 349.13 17.37 361.52 17.37 361.52 3.67 371.39 3.67 371.39 41.39"></polygon><polygon class="cls-2" points="95.74 41.39 85.86 41.39 85.86 26.26 73.47 26.26 73.47 41.39 63.6 41.39 63.6 3.67 73.47 3.67 73.47 17.37 85.86 17.37 85.86 3.67 95.74 3.67 95.74 41.39"></polygon><path class="cls-2" d="M313.45,42.36c-13.77,0-19.59-11.27-19.65-19.43-.06-8.55,5.72-19.87,19.6-19.87,12.99,0,16.93,11.38,16.93,11.38l-9,3.5s-1.72-5.39-7.94-5.39-9.17,5.39-9.17,10.33,2.89,10.05,9.17,10.05,7.94-5.16,7.94-5.16l9.22,2.67s-4.33,11.94-17.1,11.94Z"></path><rect class="cls-2" x="103.93" y="3.67" width="10.21" height="37.73"></rect><polygon class="cls-2" points="199.3 41.39 189.43 41.39 189.43 26.26 177.03 26.26 177.03 41.39 167.16 41.39 167.16 3.67 177.03 3.67 177.03 17.37 189.43 17.37 189.43 3.67 199.3 3.67 199.3 41.39"></polygon><path class="cls-2" d="M141.36,42.36c-13.77,0-19.59-11.27-19.65-19.43-.06-8.55,5.72-19.87,19.6-19.87,12.99,0,16.93,11.38,16.93,11.38l-9,3.5s-1.72-5.39-7.93-5.39-9.17,5.39-9.17,10.33,2.89,10.05,9.17,10.05,7.93-5.16,7.93-5.16l9.22,2.67s-4.33,11.94-17.1,11.94Z"></path><path class="cls-2" d="M401.05,4.02c-10.19,0-18.49,8.29-18.49,18.49s8.29,18.49,18.49,18.49,18.49-8.29,18.49-18.49-8.29-18.49-18.49-18.49Z"></path><path class="cls-2" d="M380.61,7.51c-1.86,0-3.37-1.5-3.37-3.38s1.5-3.37,3.37-3.37,3.33,1.52,3.33,3.37-1.5,3.38-3.33,3.38M380.61,1.37c-1.5,0-2.7,1.22-2.7,2.77s1.21,2.76,2.7,2.76,2.66-1.25,2.66-2.76c0-1.52-1.2-2.77-2.66-2.77M381.19,6.07l-1.09-1.5v1.5h-.91v-3.87h1.23c.94,0,1.47.43,1.47,1.19,0,.54-.31.94-.85,1.08l1.27,1.6h-1.13ZM380.28,2.92h-.18v1h.17c.44,0,.69-.17.7-.51,0-.34-.23-.5-.69-.5"></path></g><path d="M256.47.87l-5.66,13.68-5.44-14.55-6.07,14.85-5.84-13.99-16.23.02,18.81,45.27,8.56-15.48,8.45,15.46L272.25.87h-15.79ZM252.72,39.64l-8.11-14.85-8.22,14.85-14.93-35.94h10.1s7.76,18.56,7.76,18.56l5.92-14.5,5.43,14.5,7.69-18.56h9.61l-15.25,35.94Z"></path><path d="M273.2.84v43.39h15.87V.84h-15.87ZM286.24,41.39h-10.21V3.67h10.21v37.73Z"></path><path d="M358.69.84v13.7h-6.73V.84h-15.54v43.39h15.54v-15.13h6.73v15.13h15.53V.84h-15.53ZM371.39,41.39h-9.87v-15.13h-12.39v15.13h-9.87V3.67h9.87v13.7h12.39V3.67h9.87v37.73Z"></path><path d="M83.03.84v13.7h-6.73V.84h-15.53v43.39h15.53v-15.13h6.73v15.13h15.53V.84h-15.53ZM95.74,41.39h-9.87v-15.13h-12.39v15.13h-9.87V3.67h9.87v13.7h12.39V3.67h9.87v37.73Z"></path><path d="M319.49,24.28l-.84,2.61s-1.08,3.2-5.24,3.2c-6.16,0-6.33-6.48-6.33-7.21s.18-7.49,6.33-7.49c3.93,0,5.13,3.1,5.24,3.41l.92,2.87,14.35-5.57-.89-2.58c-1.59-4.59-7.74-13.29-19.61-13.29-6.31,0-11.78,2.15-15.82,6.21-4.18,4.21-6.65,10.38-6.61,16.51.07,10.78,7.98,22.24,22.48,22.24s19.56-13.24,19.76-13.8l1.03-2.84-14.76-4.27ZM313.45,42.36c-13.77,0-19.59-11.27-19.65-19.43-.06-8.55,5.72-19.87,19.6-19.87,12.99,0,16.93,11.38,16.93,11.38l-9,3.5s-1.72-5.39-7.94-5.39-9.17,5.39-9.17,10.33,2.89,10.05,9.17,10.05,7.94-5.16,7.94-5.16l9.22,2.67s-4.33,11.94-17.1,11.94Z"></path><path d="M101.1.84v43.39h15.87V.84h-15.87ZM114.14,41.39h-10.21V3.67h10.21v37.73Z"></path><path d="M186.59.84v13.7h-6.73V.84h-15.54v43.39h15.54v-15.13h6.73v15.13h15.53V.84h-15.53ZM199.3,41.39h-9.87v-15.13h-12.39v15.13h-9.87V3.67h9.87v13.7h12.39V3.67h9.87v37.73Z"></path><path d="M147.39,24.28l-.84,2.61s-1.08,3.2-5.24,3.2c-6.16,0-6.34-6.48-6.34-7.21s.18-7.49,6.34-7.49c3.93,0,5.13,3.1,5.24,3.41l.92,2.87,14.35-5.57-.89-2.58c-1.59-4.59-7.74-13.29-19.61-13.29-6.31,0-11.78,2.15-15.82,6.21-4.18,4.21-6.65,10.38-6.61,16.51.07,10.78,7.98,22.24,22.48,22.24s19.56-13.24,19.76-13.8l1.03-2.84-14.76-4.27ZM141.36,42.36c-13.77,0-19.59-11.27-19.65-19.43-.06-8.55,5.72-19.87,19.6-19.87,12.99,0,16.93,11.38,16.93,11.38l-9,3.5s-1.72-5.39-7.93-5.39-9.17,5.39-9.17,10.33,2.89,10.05,9.17,10.05,7.93-5.16,7.93-5.16l9.22,2.67s-4.33,11.94-17.1,11.94Z"></path><path class="cls-1" d="M421.04,22.52c0,11.04-8.95,19.99-19.99,19.99s-19.99-8.95-19.99-19.99,8.95-19.99,19.99-19.99,19.99,8.96,19.99,19.99"></path><path d="M401.05,44c-11.85,0-21.49-9.64-21.49-21.48s9.64-21.49,21.49-21.49,21.49,9.64,21.49,21.49-9.64,21.48-21.49,21.48ZM401.05,4.02c-10.19,0-18.49,8.29-18.49,18.49s8.29,18.49,18.49,18.49,18.49-8.29,18.49-18.49-8.29-18.49-18.49-18.49Z"></path><path d="M396.81,29.32v-7.79c3.98-1.27,7.06-2.24,7.06-4.89,0-2.06-2.07-2.96-4.02-2.96-1.42,0-2.83.21-4.24.38l.3-5.91c1.59-.29,3.17-.63,4.79-.63,5.78,0,9.84,3.33,9.84,8.35,0,5.36-4.84,8.1-8.01,9.28v3.48c-.32.03-5.18.6-5.73.68"></path><path d="M399.77,38.28c-2.05,0-3.67-1.69-3.67-3.71s1.62-3.57,3.63-3.57,3.72,1.6,3.72,3.62-1.67,3.67-3.68,3.67"></path><path d="M380.61,7.51c-1.86,0-3.37-1.5-3.37-3.38s1.5-3.37,3.37-3.37,3.33,1.52,3.33,3.37-1.5,3.38-3.33,3.38M380.61,1.37c-1.5,0-2.7,1.22-2.7,2.77s1.21,2.76,2.7,2.76,2.66-1.25,2.66-2.76c0-1.52-1.2-2.77-2.66-2.77M381.19,6.07l-1.09-1.5v1.5h-.91v-3.87h1.23c.94,0,1.47.43,1.47,1.19,0,.54-.31.94-.85,1.08l1.27,1.6h-1.13ZM380.28,2.92h-.18v1h.17c.44,0,.69-.17.7-.51,0-.34-.23-.5-.69-.5"></path><path d="M46.34,35.1L59.48.82h-14.21l-5.31,13.08-5.93-12.27-6.52,12.81L21.24.78H0l16.13,32.44c-3.57,1.01-7.33,2.66-11.9,5.45-2.79,1.71-3.98,5.32-2.95,8.97.32,1.14.9,2.33,1.74,3.46l-.03.04s.11.08.15.13c2.06,2.65,5.64,4.83,11,4.83,1.47,0,3.02-.17,4.63-.49,1.43-.29,2.99-.7,4.51-1.1,2.12-.56,4.13-1.08,5.26-1.17h.17c2.62-.37,5.12-.55,8.12-.58,11.31-.12,13.24-6.5,13.57-8.45.03-.19.05-.38.07-.57.02-.07.04-.14.05-.21h-.03c.25-3.38-1.44-6.71-4.16-8.42ZM4.36,3.49h15.14l7.87,17.18,6.59-12.94,6.21,12.84,6.92-17.04h8.45l-11.69,30.51c-2-.68-3.88-1.21-5.69-1.62l-4.21-11.27-4.47,10.29c-1.68,0-3.41.11-5.46.34-1.77.18-3.48.42-5.2.77L4.36,3.49ZM43.19,36.45c-.79,1.65-2.55,4.43-2.55,4.43-.54-2.1-1.61-4.9-1.94-5.76,1.43.36,2.92.8,4.49,1.33ZM35.05,31.84c-.9-.13-1.78-.22-2.67-.28l1.38-3.17,1.29,3.46ZM28.82,33.96c-1.56,2.99-4.33,9.49-4.33,9.49-2.35-3.26-4.79-8.07-4.99-8.47,1.59-.32,3.18-.55,4.82-.71,1.67-.19,3.12-.29,4.51-.31ZM12.84,37.02c-.34.97-1.66,4.97-1.63,8.01,0,0-2.81-4.18-2.73-5.93,1.54-.83,2.98-1.52,4.36-2.09ZM36.81,50.26c-3.06.04-5.74.23-8.38.59-1.43.11-3.54.66-5.78,1.24-1.48.39-3.01.79-4.37,1.07-1.44.29-2.83.44-4.13.44-.71,0-1.38-.05-2.02-.13,1.31-.11,2.67-.36,4.07-.79,5.08-1.57,7.3-2.14,10.34-2.64l1.21-.18c2.84-.35,6.07-.74,11.06-.32,1.26.11,2.49.06,3.64-.1-1.59.51-3.47.8-5.64.82ZM47.97,43.43c-.71,2.12-4.3,4.02-8.96,3.62-5.24-.44-8.61-.03-11.57.33l-1.31.19c-3.13.52-5.52,1.13-10.66,2.72-4.92,1.51-9.03.46-10.56-.82-.57-.8-.97-1.66-1.2-2.49-.72-2.57.02-5.04,1.84-6.16.32-.19.62-.37.93-.55.89,3.61,6.63,10.66,6.32,8.64-.94-6.02,1.32-10.8,2.49-12.78.71-.24,1.41-.44,2.1-.63,1.3,3.51,7.35,12.5,7.83,11.29,2.53-6.29,4.9-10.98,5.85-12.79,1.62.07,3.25.25,4.93.55.81,1.45,2.36,4.72,3.82,10.61.2.82,3.96-4.94,5.51-7.68,1.77,1.3,2.85,3.65,2.65,5.97Z"></path><path class="cls-2" d="M43.19,36.45c-.79,1.65-2.55,4.43-2.55,4.43-.54-2.1-1.61-4.9-1.94-5.76,1.43.36,2.92.8,4.49,1.33Z"></path><path class="cls-2" d="M24.32,34.27c1.67-.19,3.12-.29,4.51-.31-1.56,2.99-4.33,9.49-4.33,9.49-2.35-3.26-4.79-8.07-4.99-8.47,1.59-.32,3.18-.55,4.82-.71Z"></path><path class="cls-2" d="M5.54,40.8c.32-.19.62-.37.93-.55.89,3.61,6.63,10.66,6.32,8.64-.94-6.02,1.32-10.8,2.49-12.78.71-.24,1.41-.44,2.1-.63,1.3,3.51,7.35,12.5,7.83,11.29,2.53-6.29,4.9-10.98,5.85-12.79,1.62.07,3.25.25,4.93.55.81,1.45,2.36,4.72,3.82,10.61.2.82,3.96-4.94,5.51-7.68,1.77,1.3,2.85,3.65,2.65,5.97-.71,2.12-4.3,4.02-8.96,3.62-5.24-.44-8.61-.03-11.57.33l-1.31.19c-3.13.52-5.52,1.13-10.66,2.72-4.92,1.51-9.03.46-10.56-.82-.57-.8-.97-1.66-1.2-2.49-.72-2.57.02-5.04,1.84-6.16Z"></path><path class="cls-2" d="M36.81,50.26c-3.06.04-5.74.23-8.38.59-1.43.11-3.54.66-5.78,1.24-1.48.39-3.01.79-4.37,1.07-1.44.29-2.83.44-4.13.44-.71,0-1.38-.05-2.02-.13,1.31-.11,2.67-.36,4.07-.79,5.08-1.57,7.3-2.14,10.34-2.64l1.21-.18c2.84-.35,6.07-.74,11.06-.32,1.26.11,2.49.06,3.64-.1-1.59.51-3.47.8-5.64.82Z"></path><path class="cls-2" d="M8.48,39.11c1.54-.83,2.98-1.52,4.36-2.09-.34.97-1.66,4.97-1.63,8.01,0,0-2.81-4.18-2.73-5.93Z"></path><path class="cls-2" d="M4.36,3.49h15.14l7.87,17.18,6.59-12.94,6.21,12.84,6.92-17.04h8.45l-11.69,30.51c-2-.68-3.88-1.21-5.69-1.62l-4.21-11.27-4.47,10.29c-1.68,0-3.41.11-5.46.34-1.77.18-3.48.42-5.2.77L4.36,3.49Z"></path></g><g><path d="M52.15,68.78l3.33-1.35q.24-.08.3.14c.33,1,1.57,2.19,3.28,2.19,1.87,0,2.74-.57,2.74-1.82,0-1.11-.79-1.82-3.28-2.11-.19-.03-.46-.05-.65-.08-3.28-.33-5.55-2.17-5.55-5.53s2.41-5.99,7.21-5.99c3.6,0,5.83,1.71,6.53,3.98.08.3-.03.41-.19.46l-3.17,1.27c-.19.08-.27.03-.33-.11-.38-1.08-1.63-2.14-3.03-2.14-1.9,0-2.49.7-2.49,1.71,0,1.25,1,1.76,3.44,2.17.24.03.54.08.89.14,3.47.49,5.47,2.33,5.47,5.72,0,4.17-3.44,6.02-7.69,6.02-3.68,0-5.99-1.49-6.91-4.15-.11-.3-.08-.43.11-.51Z"></path><path d="M69.33,54.78q0-.16.14-.16h4.55q.19,0,.19.22v12.06c0,1.82,1.52,2.57,2.84,2.57s2.85-.73,2.85-2.57v-12.08c0-.16,0-.19.16-.19h4.44q.14,0,.14.19v11.52c0,4.36-2.25,7.13-7.64,7.13s-7.67-2.93-7.67-7.4v-11.27Z"></path><path d="M93.31,68.38v4.36c0,.22-.03.24-.24.24h-4.39c-.24,0-.24.03-.24-.24v-17.88c0-.27.14-.24.24-.24h8.13c4.04,0,6.45,2.87,6.45,7.04,0,4.44-2.63,6.2-6.1,6.61-.79.08-3.85.11-3.85.11ZM93.31,58.65v5.74l2.28-.08c1.9-.08,2.66-1.27,2.66-2.82,0-1.82-1.06-2.84-2.71-2.84h-2.22Z"></path><path d="M106.26,72.98c-.27,0-.3-.05-.3-.38v-17.72c0-.24-.03-.27.24-.27h12.25c.27,0,.3.03.3.35v3.31c0,.24-.08.38-.3.38l-7.75-.08v3.06h7.59c.24,0,.27.05.27.38v3.31c0,.32-.03.38-.27.38h-7.59v3.14l7.94-.08q.3,0,.3.35v3.5c0,.32-.03.38-.3.38h-12.38Z"></path><path d="M130.43,54.61c4.17,0,6.39,2.87,6.39,6.2,0,2.49-.87,4.25-2.52,5.04.7,1.11,2.25,3.85,3.82,6.39.33.54.24.73-.05.73h-4.8c-.22,0-.33-.05-.57-.54-.92-1.76-2.9-4.88-2.9-4.88l-3.12.05v5.12c0,.22-.03.24-.22.24h-4.44c-.22,0-.22.03-.22-.24v-17.88c0-.27.14-.24.22-.24h8.4ZM129.4,63.88c1.46-.05,2.28-1.14,2.28-2.71,0-1.44-.73-2.52-2.3-2.52h-2.68v5.31l2.71-.08Z"></path><path d="M145.61,63.83v8.91c0,.22-.03.24-.27.24h-4.5c-.24,0-.24.03-.24-.24v-17.88c0-.27,0-.24.24-.24h4.5c.24,0,.27.03.27.24v8.97Z"></path><path d="M158.34,54.23c5.47,0,9.62,4.31,9.62,9.62s-4.15,9.59-9.62,9.59-9.62-4.28-9.62-9.59,4.15-9.62,9.62-9.62ZM153.79,63.85c0,2.79,1.63,4.96,4.55,4.96s4.55-2.17,4.55-4.96-1.68-4.99-4.55-4.99-4.55,2.19-4.55,4.99Z"></path><path d="M179.69,54.61c4.17,0,6.39,2.87,6.39,6.2,0,2.49-.87,4.25-2.52,5.04.7,1.11,2.25,3.85,3.82,6.39.33.54.24.73-.05.73h-4.8c-.22,0-.33-.05-.57-.54-.92-1.76-2.9-4.88-2.9-4.88l-3.12.05v5.12c0,.22-.03.24-.22.24h-4.44c-.22,0-.22.03-.22-.24v-17.88c0-.27.14-.24.22-.24h8.4ZM178.66,63.88c1.46-.05,2.28-1.14,2.28-2.71,0-1.44-.73-2.52-2.3-2.52h-2.68v5.31l2.71-.08Z"></path><path d="M194.7,68.78l3.33-1.35q.24-.08.3.14c.33,1,1.57,2.19,3.28,2.19,1.87,0,2.74-.57,2.74-1.82,0-1.11-.79-1.82-3.28-2.11-.19-.03-.46-.05-.65-.08-3.28-.33-5.55-2.17-5.55-5.53s2.41-5.99,7.21-5.99c3.6,0,5.83,1.71,6.53,3.98.08.3-.03.41-.19.46l-3.17,1.27c-.19.08-.27.03-.33-.11-.38-1.08-1.63-2.14-3.03-2.14-1.9,0-2.49.7-2.49,1.71,0,1.25,1,1.76,3.44,2.17.24.03.54.08.89.14,3.47.49,5.47,2.33,5.47,5.72,0,4.17-3.44,6.02-7.7,6.02-3.68,0-5.99-1.49-6.91-4.15-.11-.3-.08-.43.11-.51Z"></path><path d="M215.94,70.36c-.32.76-.68,1.68-.95,2.33-.08.22-.14.3-.49.3h-4.5c-.22,0-.24-.11-.14-.38,2.82-5.99,6.75-13.98,9.21-18.59.03-.08.62-.05.65,0,2.6,5.07,6.29,12.6,9.27,18.59.16.35.14.38-.11.38h-5.07c-.14,0-.24-.03-.32-.22-.33-.73-.73-1.73-1-2.41h-6.56ZM221.06,66.83l-1.92-4.12-1.84,4.12h3.77Z"></path><path d="M231.09,54.34c0-.3.16-.27.3-.19,3.87,2.76,10.51,8.91,10.51,8.91v-8.13c0-.3,0-.32.22-.32h4.12c.27,0,.27.05.27.32.11,5.28.08,12.55,0,18.18,0,.32-.03.49-.33.27-4.09-3.06-10.49-8.94-10.49-8.94v8.29q0,.24-.24.24h-4.09c-.19,0-.27-.16-.27-.27-.14-6.91-.11-11.22,0-18.37Z"></path><path d="M250.79,72.98c-.19,0-.22.03-.22-.24v-17.86c0-.22.03-.27.22-.27h7.53c5.2,0,8.32,3.22,8.32,9.19s-3.58,9.19-8.94,9.19h-6.91ZM255.34,69.08h2.49c2.71,0,3.74-2.19,3.74-5.36,0-2.95-1.33-5.26-3.68-5.26h-2.55v10.62Z"></path><path d="M279.05,64.91s-1.73,3.77-3.74,8.32c-.11.24-.57.22-.62,0-2.6-6.67-4.06-10.3-6.88-18.13-.19-.43-.24-.49.11-.49h4.17c.46.03.57.11.7.49.62,2.3,2.71,8.54,2.71,8.54,0,0,2.9-7.48,3.55-8.94.14-.3.51-.35.65,0,.62,1.54,3.31,8.94,3.31,8.94,0,0,2.09-6.37,2.76-8.75.05-.3.05-.27.27-.27h4.2q.35,0,.24.35c-3.01,7.72-4.55,11.49-7.1,18.18-.11.27-.54.27-.65.05-2.14-4.88-3.68-8.29-3.68-8.29Z"></path><path d="M297.61,63.83v8.91c0,.22-.03.24-.27.24h-4.5c-.24,0-.24.03-.24-.24v-17.88c0-.27,0-.24.24-.24h4.5c.24,0,.27.03.27.24v8.97Z"></path><path d="M314.51,66.37l4.06,1.11c.27.05.3.19.24.35-1.22,2.95-4.25,5.61-8.48,5.61-5.77,0-9.62-4.36-9.62-9.56,0-5.55,4.17-9.65,9.48-9.65,4.47,0,7.21,2.41,8.43,5.18.14.33.03.43-.08.49l-4.04,1.57c-.16.05-.19,0-.24-.14-.79-1.63-2.09-2.47-3.96-2.47-2.71,0-4.44,2.14-4.44,5.04,0,3.39,2.25,4.93,4.52,4.93,1.84,0,3.14-.89,3.79-2.28.08-.14.11-.24.33-.19Z"></path><path d="M337.08,72.74c0,.27,0,.24-.24.24h-4.36c-.24,0-.27-.03-.27-.24v-7.15h-6.15v7.15c0,.22-.03.24-.22.24h-4.42c-.24,0-.24.03-.24-.24v-17.88c0-.27,0-.24.24-.24h4.42c.19,0,.22.03.22.24v6.39h6.15v-6.39c0-.22.03-.24.27-.24h4.36c.24,0,.24-.03.24.24v17.88Z"></path><path d="M341.45,72.98c-.27,0-.3-.05-.3-.38v-17.72c0-.24-.03-.27.24-.27h12.25c.27,0,.3.03.3.35v3.31c0,.24-.08.38-.3.38l-7.75-.08v3.06h7.59c.24,0,.27.05.27.38v3.31c0,.32-.03.38-.27.38h-7.59v3.14l7.94-.08q.3,0,.3.35v3.5c0,.32-.03.38-.3.38h-12.38Z"></path><path d="M356.05,68.78l3.33-1.35q.24-.08.3.14c.33,1,1.57,2.19,3.28,2.19,1.87,0,2.74-.57,2.74-1.82,0-1.11-.79-1.82-3.28-2.11-.19-.03-.46-.05-.65-.08-3.28-.33-5.55-2.17-5.55-5.53s2.41-5.99,7.21-5.99c3.6,0,5.83,1.71,6.53,3.98.08.3-.03.41-.19.46l-3.17,1.27c-.19.08-.27.03-.33-.11-.38-1.08-1.63-2.14-3.03-2.14-1.9,0-2.49.7-2.49,1.71,0,1.25,1,1.76,3.44,2.17.24.03.54.08.89.14,3.47.49,5.47,2.33,5.47,5.72,0,4.17-3.44,6.02-7.7,6.02-3.68,0-5.99-1.49-6.91-4.15-.11-.3-.08-.43.11-.51Z"></path></g></g></g></g></svg> 